<?xml version="1.0" encoding="UTF-8"?>
<svg xmlns="http://www.w3.org/2000/svg" xmlns:xlink="http://www.w3.org/1999/xlink" viewBox="0 0 24 24" width="24px" height="24px">
<g id="surface54026944">
<path style=" stroke:none;fill-rule:nonzero;fill:rgb(98.039216%,50.196081%,44.705883%);fill-opacity:1;" d="M 12 2 C 10.34375 2 9 3.34375 9 5 C 9 6.65625 10.34375 8 12 8 C 13.65625 8 15 6.65625 15 5 C 15 3.34375 13.65625 2 12 2 Z M 9 10 C 8.640625 9.996094 8.304688 10.183594 8.121094 10.496094 C 7.941406 10.808594 7.941406 11.191406 8.121094 11.503906 C 8.304688 11.816406 8.640625 12.003906 9 12 L 10 12 L 10 20 L 9 20 C 8.640625 19.996094 8.304688 20.183594 8.121094 20.496094 C 7.941406 20.808594 7.941406 21.191406 8.121094 21.503906 C 8.304688 21.816406 8.640625 22.003906 9 22 L 15 22 C 15.359375 22.003906 15.695312 21.816406 15.878906 21.503906 C 16.058594 21.191406 16.058594 20.808594 15.878906 20.496094 C 15.695312 20.183594 15.359375 19.996094 15 20 L 14 20 L 14 11 C 14 10.449219 13.550781 10 13 10 Z M 9 10 "/>
</g>
</svg>
